# xmcd
#
# Track frame offsets:
#	150
#	21076
#	36902
#	50252
#	64309
#	77036
#	91072
#	107535
#	121302
#	135519
#	150478
#	170114
#	191171
#	203552
#	215591
#	230511
#	242321
#	260623
#	273399
#	286863
#	302299
#	313252
#	330597
#
# Disc length: 4682 seconds
#
# Revision: 1
# Processed by: cddbd v1.5.1PL2 Copyright (c) Steve Scherf et al.
# Submitted via: EasyCDDAExtractor 6.2.0.3
#
DISCID=3b124817
DTITLE=Various Artist - Fuck Nashville Volume 1
DYEAR=2005
DGENRE=Country
TTITLE0=Dale Watson and Hank Williams III - Country My Ass
TTITLE1=Justin Tubb - What's Wrong With The Way That We're Doing It Now?
TTITLE2=Waylon Jennings - Are You Sure Hank Done It This Way?
TTITLE3=Dale Watson - What If
TTITLE4=Hank Williams III - Dick In Dixie
TTITLE5=Shooter Jennings - Solid Country Gold
TTITLE6=Austin Cunningham - 15 Songs
TTITLE7=Kenneth Brian - Something's Wrong With The Jukebox
TTITLE8=Those Poor Bastards - Radio Country
TTITLE9=George Jones - Who's Gonna Fill Their Shoes?
TTITLE10=Larry Cordle - Murder On Music Row
TTITLE11=Cory Morrow - Nashville Blues
TTITLE12=Eleven Hundred Springs - Hank Williams Wouldn't Make It Now In Nashvi
TTITLE12=lle, TN
TTITLE13=Jello Biafra and Mojo Nixon - Let's Go Burn Ole Nashville Down
TTITLE14=Hank Williams III - Trashville
TTITLE15=Dale Watson - Nashville Rash
TTITLE16=Joey Allcorn - In Nashville, Tennessee
TTITLE17=Jesse Dayton - Hey Nashvegas!
TTITLE18=Heather Myles - Nashville's Gone Hollywood
TTITLE19=Hackensaw Boys - Nashville
TTITLE20=Robbie Fulks - Fuck This Town
TTITLE21=BR5-49 - Movin' The Country
TTITLE22=Houston Marchman - Viet Nashville
EXTD=
EXTT0=
EXTT1=
EXTT2=
EXTT3=
EXTT4=
EXTT5=
EXTT6=
EXTT7=
EXTT8=
EXTT9=
EXTT10=
EXTT11=
EXTT12=
EXTT13=
EXTT14=
EXTT15=
EXTT16=
EXTT17=
EXTT18=
EXTT19=
EXTT20=
EXTT21=
EXTT22=
PLAYORDER=
